<?xml version="1.0" standalone="no"?>
<!DOCTYPE svg PUBLIC "-//W3C//DTD SVG 20010904//EN"
 "http://www.w3.org/TR/2001/REC-SVG-20010904/DTD/svg10.dtd">
<svg version="1.0" xmlns="http://www.w3.org/2000/svg"
 width="700.000000pt" height="700.000000pt" viewBox="0 0 700.000000 700.000000"
 preserveAspectRatio="xMidYMid meet">
<metadata>
Created by potrace 1.14, written by Peter Selinger 2001-2017
</metadata>
<g transform="translate(0.000000,700.000000) scale(0.100000,-0.100000)"
fill="#000000" stroke="none">
<path d="M3451 5998 c-30 -5 -73 -19 -95 -33 -23 -13 -655 -638 -1406 -1389
l-1365 -1366 80 0 c44 -1 175 -1 291 0 l211 0 -1 -1177 c-1 -831 2 -1191 10
-1223 23 -94 75 -157 164 -199 l55 -26 2105 0 2105 0 55 26 c97 47 152 119
167 221 5 29 8 576 7 1215 l0 1163 175 -1 c97 0 228 0 291 1 l115 0 -1369
1369 c-923 923 -1383 1376 -1410 1390 -71 34 -111 41 -185 29z m924 -1573
l875 -875 -2 -1192 -3 -1192 -570 -1 c-313 0 -575 1 -580 3 -8 2 -11 230 -10
727 0 399 -2 726 -5 726 -3 1 -265 2 -582 3 -506 1 -577 -1 -580 -14 -2 -8 -3
-336 -3 -727 1 -713 1 -713 -19 -714 -70 -3 -1123 -4 -1133 -1 -10 3 -13 251
-13 1193 l0 1189 873 874 c479 481 873 875 874 875 2 1 397 -393 878 -874z"/>
</g>
</svg>
